<svg xmlns="http://www.w3.org/2000/svg" version="1.1" xmlns:xlink="http://www.w3.org/1999/xlink" xmlns:svgjs="http://svgjs.dev/svgjs" width="1440" height="560" preserveAspectRatio="none" viewBox="0 0 1440 560"><g mask="url(&quot;#SvgjsMask1963&quot;)" fill="none"><rect width="1440" height="560" x="0" y="0" fill="url(&quot;#SvgjsLinearGradient1964&quot;)"></rect><path d="M0 0L44.44 0L0 64.03z" fill="rgba(255, 255, 255, .1)"></path><path d="M0 64.03L44.44 0L514.65 0L0 315.64z" fill="rgba(255, 255, 255, .075)"></path><path d="M0 315.64L514.65 0L999.67 0L0 316.78z" fill="rgba(255, 255, 255, .05)"></path><path d="M0 316.78L999.67 0L1081.93 0L0 427.53z" fill="rgba(255, 255, 255, .025)"></path><path d="M1440 560L1146.5 560L1440 452.53z" fill="rgba(0, 0, 0, .1)"></path><path d="M1440 452.53L1146.5 560L1028.48 560L1440 292.93999999999994z" fill="rgba(0, 0, 0, .075)"></path><path d="M1440 292.94L1028.48 560L593.54 560L1440 273.78z" fill="rgba(0, 0, 0, .05)"></path><path d="M1440 273.78L593.54 560L479.15999999999997 560L1440 100.91999999999996z" fill="rgba(0, 0, 0, .025)"></path></g><defs><mask id="SvgjsMask1963"><rect width="1440" height="560" fill="#ffffff"></rect></mask><linearGradient x1="50%" y1="100%" x2="50%" y2="0%" gradientUnits="userSpaceOnUse" id="SvgjsLinearGradient1964"><stop stop-color="rgba(0, 0, 0, 1)" offset="0"></stop><stop stop-color="rgba(17, 25, 40, 1)" offset="0.41"></stop></linearGradient></defs></svg>