<svg xmlns="http://www.w3.org/2000/svg" version="1.1" xmlns:xlink="http://www.w3.org/1999/xlink" xmlns:svgjs="http://svgjs.dev/svgjs" width="1440" height="560" preserveAspectRatio="none" viewBox="0 0 1440 560"><g mask="url(&quot;#SvgjsMask1911&quot;)" fill="none"><rect width="1440" height="560" x="0" y="0" fill="url(&quot;#SvgjsLinearGradient1912&quot;)"></rect><path d="M1440 0L1292.75 0L1440 92.36z" fill="rgba(255, 255, 255, .1)"></path><path d="M1292.75 0L1440 92.36L1440 219.68L1040.43 0z" fill="rgba(255, 255, 255, .075)"></path><path d="M1040.43 0L1440 219.68L1440 322.98L1022.4100000000001 0z" fill="rgba(255, 255, 255, .05)"></path><path d="M1022.4100000000001 0L1440 322.98L1440 483.53000000000003L730.3800000000001 0z" fill="rgba(255, 255, 255, .025)"></path><path d="M0 560L460.29 560L0 366.96000000000004z" fill="rgba(0, 0, 0, .1)"></path><path d="M0 366.96000000000004L460.29 560L933.78 560L0 223.38000000000002z" fill="rgba(0, 0, 0, .075)"></path><path d="M0 223.38L933.78 560L948.9599999999999 560L0 91.74000000000001z" fill="rgba(0, 0, 0, .05)"></path><path d="M0 91.74000000000001L948.9599999999999 560L1083.87 560L0 54.59000000000001z" fill="rgba(0, 0, 0, .025)"></path></g><defs><mask id="SvgjsMask1911"><rect width="1440" height="560" fill="#ffffff"></rect></mask><linearGradient x1="0%" y1="50%" x2="100%" y2="50%" gradientUnits="userSpaceOnUse" id="SvgjsLinearGradient1912"><stop stop-color="rgba(0, 0, 0, 1)" offset="0"></stop><stop stop-color="rgba(17, 25, 40, 1)" offset="0.41"></stop></linearGradient></defs></svg>