<svg xmlns="http://www.w3.org/2000/svg" version="1.1" xmlns:xlink="http://www.w3.org/1999/xlink" xmlns:svgjs="http://svgjs.dev/svgjs" width="1440" height="560" preserveAspectRatio="none" viewBox="0 0 1440 560"><g mask="url(&quot;#SvgjsMask6313&quot;)" fill="none"><rect width="1440" height="560" x="0" y="0" fill="url(&quot;#SvgjsLinearGradient6314&quot;)"></rect><path d="M1440 0L1435.07 0L1440 84.6z" fill="rgba(255, 255, 255, .1)"></path><path d="M1435.07 0L1440 84.6L1440 198.98L815.4899999999999 0z" fill="rgba(255, 255, 255, .075)"></path><path d="M815.49 0L1440 198.98L1440 394.33L751.4200000000001 0z" fill="rgba(255, 255, 255, .05)"></path><path d="M751.4200000000001 0L1440 394.33L1440 482.36L512.97 0z" fill="rgba(255, 255, 255, .025)"></path><path d="M0 560L442.81 560L0 544.81z" fill="rgba(0, 0, 0, .1)"></path><path d="M0 544.81L442.81 560L900.27 560L0 427.50999999999993z" fill="rgba(0, 0, 0, .075)"></path><path d="M0 427.51L900.27 560L1005.56 560L0 253.10999999999999z" fill="rgba(0, 0, 0, .05)"></path><path d="M0 253.11L1005.56 560L1018.63 560L0 107.56z" fill="rgba(0, 0, 0, .025)"></path></g><defs><mask id="SvgjsMask6313"><rect width="1440" height="560" fill="#ffffff"></rect></mask><linearGradient x1="0%" y1="50%" x2="100%" y2="50%" gradientUnits="userSpaceOnUse" id="SvgjsLinearGradient6314"><stop stop-color="rgba(12, 30, 8, 1)" offset="0"></stop><stop stop-color="rgba(247, 247, 247, 1)" offset="0"></stop></linearGradient></defs></svg>