<svg xmlns="http://www.w3.org/2000/svg" version="1.1" xmlns:xlink="http://www.w3.org/1999/xlink" xmlns:svgjs="http://svgjs.dev/svgjs" width="1440" height="560" preserveAspectRatio="none" viewBox="0 0 1440 560"><g mask="url(&quot;#SvgjsMask6266&quot;)" fill="none"><rect width="1440" height="560" x="0" y="0" fill="url(&quot;#SvgjsLinearGradient6267&quot;)"></rect><path d="M0 0L125.97 0L0 264z" fill="rgba(255, 255, 255, .1)"></path><path d="M0 264L125.97 0L312.59000000000003 0L0 274.58z" fill="rgba(255, 255, 255, .075)"></path><path d="M0 274.58L312.59000000000003 0L526.28 0L0 337.83z" fill="rgba(255, 255, 255, .05)"></path><path d="M0 337.83L526.28 0L1086.13 0L0 345.38z" fill="rgba(255, 255, 255, .025)"></path><path d="M1440 560L1178.27 560L1440 518.52z" fill="rgba(0, 0, 0, .1)"></path><path d="M1440 518.52L1178.27 560L983.12 560L1440 469.21z" fill="rgba(0, 0, 0, .075)"></path><path d="M1440 469.21000000000004L983.12 560L410.87 560L1440 253.16000000000003z" fill="rgba(0, 0, 0, .05)"></path><path d="M1440 253.15999999999997L410.8699999999999 560L364.0899999999999 560L1440 91.76999999999998z" fill="rgba(0, 0, 0, .025)"></path></g><defs><mask id="SvgjsMask6266"><rect width="1440" height="560" fill="#ffffff"></rect></mask><linearGradient x1="15.28%" y1="-39.29%" x2="84.72%" y2="139.29%" gradientUnits="userSpaceOnUse" id="SvgjsLinearGradient6267"><stop stop-color="rgba(12, 30, 8, 1)" offset="0"></stop><stop stop-color="rgba(247, 247, 247, 1)" offset="0"></stop></linearGradient></defs></svg>